<?xml version="1.0" encoding="UTF-8" standalone="no"?>
<svg width="108px" height="103px" viewBox="0 0 108 103" version="1.1" xmlns="http://www.w3.org/2000/svg" xmlns:xlink="http://www.w3.org/1999/xlink">
    <!-- Generator: sketchtool 39.1 (31720) - http://www.bohemiancoding.com/sketch -->
    <title>4B529DD5-AAD3-4B4B-A58D-A3BAE12419E3</title>
    <desc>Created with sketchtool.</desc>
    <defs></defs>
    <g id="Page-1" stroke="none" stroke-width="1" fill="none" fill-rule="evenodd">
        <g id="Desktop-HD" transform="translate(-665.000000, -2539.000000)" fill="#FFFFFF">
            <g id="SERVICES" transform="translate(-2.000000, 1985.000000)">
                <g id="anchor" transform="translate(667.000000, 554.000000)">
                    <path d="M107.297724,57.9667708 L103.289878,53.9076595 C103.289878,53.9076595 101.686959,52.0399906 100.658204,52.0790643 C99.8603265,52.1156528 99.3587602,52.4377694 98.353699,53.6679705 L94.1093265,57.9669088 C93.2902347,58.7968458 93.2971224,60.1351555 94.1246173,60.956118 C94.5352653,61.3645282 95.0722347,61.5679048 95.6086531,61.5679048 C96.1514082,61.5679048 96.6949898,61.3584531 97.1070153,60.9409303 L98.7161327,59.3118458 C96.0420306,80.8039142 78.1986122,97.6422051 56.2899031,98.6626783 L56.2899031,21.7644799 C61.2404082,20.7133552 64.9679235,16.3024424 64.9679235,11.0321836 C64.9679235,4.98210724 60.0564031,0.059922252 54.0205255,0.059922252 C47.9849235,0.059922252 43.0731276,4.98210724 43.0731276,11.0321836 C43.0731276,16.414555 46.9630561,20.895055 52.0714286,21.8198458 L52.0714286,98.6625402 C30.3061224,97.6486944 12.5522449,81.0238592 9.69919898,59.73213 L10.8927092,60.9407922 C11.3045969,61.358315 11.8484541,61.5677668 12.3909337,61.5677668 C12.9265255,61.5677668 13.4632194,61.3643901 13.8751071,60.9559799 C14.702602,60.1350174 14.7097653,58.7965697 13.8892959,57.9667708 L9.64492347,53.6678324 C9.00353571,53.025118 8.15496429,51.9289826 7.29564796,51.9289826 C6.10695918,51.9289826 5.70209694,52.9366153 4.94637245,53.6678324 L0.702137755,57.9667708 C-0.118331633,58.7967078 -0.111168367,60.1350174 0.716188776,60.9559799 C1.12821429,61.3643901 1.66490816,61.5677668 2.20036224,61.5677668 C2.74297959,61.5677668 3.28683673,61.358315 3.69872449,60.9407922 L5.38415816,59.2350791 C8.13168367,83.7878767 28.9623214,102.940078 54.1807347,102.940078 C79.2874286,102.940078 100.041612,83.9559075 102.935985,59.5592668 L104.300036,60.9407922 C104.711923,61.358315 105.255781,61.5677668 105.7995,61.5677668 C106.33523,61.5677668 106.870546,61.3643901 107.282709,60.9559799 C108.111031,60.1350174 108.118056,58.7967078 107.297724,57.9667708 L107.297724,57.9667708 Z M54.0206633,17.7764745 C53.3426327,17.7764745 52.6881582,17.6731984 52.0717041,17.4856997 C49.3091633,16.6458217 47.2917398,14.0716501 47.2917398,11.0321836 C47.2917398,7.31313807 50.3107806,4.28789276 54.0206633,4.28789276 C57.7305459,4.28789276 60.7495867,7.31313807 60.7495867,11.0321836 C60.7495867,13.952496 58.8853469,16.4369223 56.2900408,17.3735871 C55.5792245,17.6295684 54.8188163,17.7764745 54.0206633,17.7764745 L54.0206633,17.7764745 Z" id="Shape"></path>
                </g>
            </g>
        </g>
    </g>
</svg>