<?xml version="1.0" encoding="UTF-8" standalone="no"?>
<svg width="177px" height="150px" viewBox="0 0 177 150" version="1.1" xmlns="http://www.w3.org/2000/svg" xmlns:xlink="http://www.w3.org/1999/xlink">
    <!-- Generator: sketchtool 39.1 (31720) - http://www.bohemiancoding.com/sketch -->
    <title>0ECE4F48-4B4A-4729-AB57-1188F1AFD05F</title>
    <desc>Created with sketchtool.</desc>
    <defs></defs>
    <g id="Page-1" stroke="none" stroke-width="1" fill="none" fill-rule="evenodd">
        <g id="Desktop-HD" transform="translate(-1124.000000, -2995.000000)">
            <g id="PRICES" transform="translate(66.000000, 2732.000000)">
                <g id="PREMIUM-PLUS" transform="translate(996.000000, 183.000000)">
                    <g id="1472266936_helm" transform="translate(62.000000, 80.000000)">
                        <g id="Layer_1" fill="#23334A">
                            <path d="M146.854038,72.0269231 L146.184038,72.0269231 C144.580962,70.1015385 141.4025,68.8863462 137.341154,68.8863462 C135.801346,68.8863462 134.391346,69.0623077 133.143846,69.3840385 C131.968846,57.4744231 127.200769,46.6059615 119.943654,37.8757692 C121.158654,37.1890385 122.379615,36.2680769 123.517692,35.1292308 C125.133462,33.5134615 126.391346,31.6659615 127.054808,29.9273077 C127.555577,28.6173077 127.668846,27.5240385 127.579423,26.6290385 L127.910962,26.2953846 C129.072692,25.135 129.072692,23.2519231 127.910962,22.0913462 C126.749808,20.93 124.868269,20.93 123.707115,22.0913462 L123.351923,22.4488462 C123.172692,22.4313462 123.016923,22.3932692 122.824231,22.3932692 C120.408846,22.3932692 117.435962,23.9211538 114.870769,26.4828846 C113.693077,27.6607692 112.780577,28.8769231 112.113654,30.0748077 C103.347115,22.8536538 92.4467308,18.1426923 80.5182692,17.0261538 C80.8965385,15.6971154 81.1153846,14.1807692 81.1153846,12.5009615 C81.1153846,8.43961538 79.9011538,5.26230769 77.9728846,3.65826923 L77.9728846,3.14634615 C77.9728846,1.50480769 76.6421154,0.173461538 75,0.173461538 C73.3609615,0.173461538 72.0271154,1.50480769 72.0271154,3.14634615 L72.0271154,3.65826923 C70.1026923,5.2625 68.8882692,8.43961538 68.8882692,12.5009615 C68.8882692,14.1832692 69.1071154,15.7013462 69.4888462,17.0311538 C57.5634615,18.1609615 46.67,22.8836538 37.9134615,30.1128846 C37.24,28.9026923 36.3207692,27.6732692 35.1328846,26.4830769 C32.5680769,23.9213462 29.595,22.3917308 27.1792308,22.3917308 C26.9869231,22.3917308 26.8309615,22.43 26.6515385,22.4475 L26.2965385,22.0907692 C25.1353846,20.9294231 23.2538462,20.9294231 22.0925,22.0907692 C20.9311538,23.2513462 20.9311538,25.1344231 22.0925,26.2948077 L22.4276923,26.6294231 C22.3382692,27.5244231 22.4509615,28.6176923 22.9486538,29.9259615 C23.6123077,31.6653846 24.8698077,33.5138462 26.4857692,35.1303846 C27.6373077,36.2836538 28.8748077,37.2132692 30.1057692,37.9028846 C22.8457692,46.6444231 18.0842308,57.5288462 16.9226923,69.4534615 C15.6188462,69.0917308 14.1355769,68.8869231 12.4996154,68.8869231 C8.43826923,68.8869231 5.26269231,70.1021154 3.65923077,72.0275 L3.14653846,72.0275 C1.50576923,72.0275 0.173653846,73.3588462 0.173653846,75.0005769 C0.173653846,76.6423077 1.50576923,77.9734615 3.14653846,77.9734615 L3.65923077,77.9734615 C5.26269231,79.8986538 8.43826923,81.1140385 12.4996154,81.1140385 C14.1253846,81.1140385 15.6021154,80.9117308 16.8994231,80.5542308 C18.0011538,92.4871154 22.6963462,103.393077 29.9065385,112.166154 C28.7784615,112.836538 27.6534615,113.704423 26.5984615,114.759231 C23.725,117.631923 22.3380769,120.7375 22.5669231,123.233654 L22.0923077,123.707308 C20.9309615,124.867692 20.9309615,126.750769 22.0923077,127.911154 C22.6730769,128.492115 23.4328846,128.782308 24.1926923,128.782308 C24.9557692,128.782308 25.7155769,128.492115 26.2961538,127.911154 L26.7642308,127.441731 C26.9434615,127.459423 27.0992308,127.497308 27.2917308,127.497308 C29.7075,127.497308 32.6803846,125.969038 35.2451923,123.405962 C36.3169231,122.331923 37.1830769,121.225192 37.8332692,120.130385 C46.5732692,127.370769 57.4469231,132.113654 69.3555769,133.269423 C69.0536538,134.486346 68.8878846,135.853077 68.8878846,137.341731 C68.8878846,141.403077 70.1023077,144.580192 72.0267308,146.183077 L72.0267308,146.853846 C72.0267308,148.495385 73.3607692,149.826923 74.9996154,149.826923 C76.6419231,149.826923 77.9725,148.495385 77.9725,146.853846 L77.9725,146.183077 C79.9005769,144.580192 81.115,141.403269 81.115,137.341731 C81.115,135.855192 80.9490385,134.490769 80.6467308,133.274808 C92.5723077,132.132308 103.462692,127.394808 112.212692,120.152885 C112.886346,121.272115 113.739038,122.386154 114.760962,123.405385 C117.3225,125.967115 120.295385,127.496923 122.711346,127.496923 C122.904038,127.496923 123.062885,127.458654 123.239038,127.441923 L123.710192,127.911346 C124.290769,128.492308 125.050192,128.7825 125.810577,128.7825 C126.570577,128.7825 127.333462,128.492308 127.914038,127.911346 C129.075577,126.750962 129.075577,124.867885 127.914038,123.7075 L127.439615,123.233269 C127.665192,120.7375 126.278269,117.632115 123.408077,114.76 C122.365962,113.718846 121.257885,112.859231 120.146154,112.192692 C127.353654,103.430769 132.051731,92.5409615 133.166346,80.6236538 C134.4075,80.9405769 135.811346,81.1140385 137.340962,81.1140385 C141.402308,81.1140385 144.580769,79.8986538 146.183846,77.9734615 L146.853846,77.9734615 C148.496154,77.9734615 149.826731,76.6421154 149.826731,75.0005769 C149.826923,73.3582692 148.496346,72.0269231 146.854038,72.0269231 L146.854038,72.0269231 Z M114.196731,109.991346 L110.274615,106.070385 C116.970577,98.4775 121.247885,88.7096154 121.891154,77.9730769 L127.406346,77.9730769 C126.752692,90.2292308 121.868654,101.376731 114.196731,109.991346 L114.196731,109.991346 Z M40.0328846,114.173077 L44.0876923,110.119423 C51.6265385,116.827885 61.3421154,121.135385 72.0265385,121.846923 L72.0265385,127.511538 C59.7694231,126.814615 48.6269231,121.889423 40.0328846,114.173077 L40.0328846,114.173077 Z M22.6657692,77.9730769 L28.4426923,77.9730769 C29.0798077,88.6267308 33.2971154,98.325 39.9069231,105.892885 L35.8423077,109.955962 C28.1905769,101.346346 23.3161538,90.2128846 22.6657692,77.9730769 L22.6657692,77.9730769 Z M35.985,40.1884615 L40.0396154,44.2442308 C33.4167308,51.7646154 29.1661538,61.4155769 28.4659615,72.0269231 L22.6890385,72.0269231 C23.4090385,59.8319231 28.3132692,48.7476923 35.985,40.1884615 L35.985,40.1884615 Z M109.836731,35.9621154 L105.914615,39.8842308 C98.3426923,33.2736538 88.6369231,29.0538462 77.9723077,28.4201923 L77.9723077,22.7942308 C90.1671154,23.47 101.255962,28.3328846 109.836731,35.9621154 L109.836731,35.9621154 Z M75.0359615,85.4903846 C69.3355769,85.4903846 64.7001923,80.8542308 64.7001923,75.1551923 C64.7001923,69.4563462 69.3355769,64.82 75.0359615,64.82 C80.7330769,64.82 85.3723077,69.4563462 85.3723077,75.1551923 C85.3723077,80.8540385 80.7332692,85.4903846 75.0359615,85.4903846 L75.0359615,85.4903846 Z M84.1376923,61.6611538 C82.3126923,60.4267308 80.2225,59.565 77.9725,59.1534615 L77.9725,34.3817308 C86.9980769,34.9975 95.2234615,38.5511538 101.700769,44.0965385 L84.1376923,61.6611538 L84.1376923,61.6611538 Z M72.0265385,59.1642308 C69.79,59.5840385 67.7096154,60.4542308 65.8946154,61.6911538 L48.4544231,44.2509615 C54.8817308,38.6863462 63.0509615,35.0936538 72.0265385,34.4075 L72.0265385,59.1642308 L72.0265385,59.1642308 Z M61.6740385,65.8775 C60.4098077,67.6942308 59.5038462,69.7763462 59.0626923,72.0269231 L34.4253846,72.0269231 C35.1088462,63.0530769 38.6959615,54.8846154 44.2536538,48.4565385 L61.6740385,65.8775 L61.6740385,65.8775 Z M59.0161538,77.9730769 C59.4175,80.2651923 60.2869231,82.3996154 61.5411538,84.2561538 L44.1175,101.680385 C38.5763462,95.2057692 35.0225,86.9884615 34.4053846,77.9730769 L59.0161538,77.9730769 L59.0161538,77.9730769 Z M65.7186538,88.4876923 C67.5769231,89.79 69.7171154,90.7123077 72.0265385,91.1461538 L72.0265385,115.885192 C62.9780769,115.194423 54.7490385,111.547308 48.2984615,105.906923 L65.7186538,88.4876923 L65.7186538,88.4876923 Z M77.9725,91.1569231 C80.2953846,90.7315385 82.4455769,89.8171154 84.3138462,88.5167308 L101.856731,106.061346 C95.3565385,111.683654 87.0709615,115.290385 77.9726923,115.911154 L77.9726923,91.1569231 L77.9725,91.1569231 Z M88.5011538,84.295 C89.7719231,82.4284615 90.6513462,80.2817308 91.0559615,77.9730769 L115.932115,77.9730769 C115.304615,87.0713462 111.691731,95.3569231 106.064038,101.857692 L88.5011538,84.295 L88.5011538,84.295 Z M91.0098077,72.0269231 C90.5648077,69.76 89.6492308,67.6644231 88.3684615,65.8386538 L105.928077,48.2782692 C111.575769,54.7338462 115.222308,62.9701923 115.909038,72.0271154 L91.0098077,72.0271154 L91.0098077,72.0269231 Z M72.0265385,28.4457692 C61.415,29.1532692 51.7626923,33.4088462 44.2436538,40.0384615 L40.1988462,35.9934615 C48.7696154,28.3611538 59.8455769,23.4915385 72.0265385,22.7990385 L72.0265385,28.4457692 L72.0265385,28.4457692 Z M77.9725,121.872115 C88.7103846,121.235 98.4753846,116.962885 106.070769,110.273462 L110.002692,114.204423 C101.398654,121.917308 90.2428846,126.835 77.9723077,127.516154 L77.9723077,121.872115 L77.9725,121.872115 Z M121.871731,72.0269231 C121.161346,61.3326923 116.854808,51.6121154 110.142115,44.0665385 L114.054231,40.1521154 C121.745385,48.7171154 126.66,59.8155769 127.383269,72.0269231 L121.871731,72.0269231 L121.871731,72.0269231 Z" id="Shape"></path>
                        </g>
                        <rect id="Rectangle-10" fill="#7ED321" x="153" y="13" width="8" height="40" rx="2"></rect>
                        <rect id="Rectangle-10" fill="#7ED321" transform="translate(157.000000, 33.000000) rotate(90.000000) translate(-157.000000, -33.000000) " x="153" y="13" width="8" height="40" rx="2"></rect>
                    </g>
                </g>
            </g>
        </g>
    </g>
</svg>