<?xml version="1.0" encoding="UTF-8" standalone="no"?>
<svg width="24px" height="16px" viewBox="0 0 24 16" version="1.1" xmlns="http://www.w3.org/2000/svg" xmlns:xlink="http://www.w3.org/1999/xlink">
    <!-- Generator: sketchtool 39.1 (31720) - http://www.bohemiancoding.com/sketch -->
    <title>CE06D809-6446-4322-9993-615008C1AB9F</title>
    <desc>Created with sketchtool.</desc>
    <defs></defs>
    <g id="Page-1" stroke="none" stroke-width="1" fill="none" fill-rule="evenodd">
        <g id="Desktop-HD" transform="translate(-1128.000000, -6214.000000)" fill="#FFFFFF">
            <g id="CONTACT" transform="translate(-5.000000, 5659.000000)">
                <g id="email" transform="translate(1005.000000, 547.000000)">
                    <g id="1472350535_Mail02" transform="translate(128.000000, 8.000000)">
                        <g id="Mail">
                            <path d="M12,6.56311111 L22.0356757,0.131777778 C21.9264865,0.114 21.8157838,0.102444444 21.7022703,0.102444444 L2.29772973,0.102444444 C2.18421622,0.102444444 2.0732973,0.114444444 1.96454054,0.131777778 L12,6.56311111 L12,6.56311111 Z" id="Shape"></path>
                            <path d="M12.6315676,9.04955556 C12.6181622,9.05844444 12.6034595,9.06422222 12.5896216,9.07266667 C12.5751351,9.08088889 12.5595676,9.08888889 12.5450811,9.09644444 C12.4661622,9.13822222 12.3848649,9.17177778 12.3018378,9.194 C12.2931892,9.19644444 12.284973,9.19777778 12.2767568,9.19955556 C12.1852973,9.22155556 12.0934054,9.23511111 12.0012973,9.23511111 L12.0004324,9.23511111 L11.9993514,9.23511111 C11.9072432,9.23511111 11.8151351,9.22177778 11.7241081,9.19955556 C11.7156757,9.19755556 11.707027,9.19622222 11.6985946,9.194 C11.6155676,9.17155556 11.5349189,9.138 11.4555676,9.09644444 C11.4406486,9.08888889 11.4255135,9.08088889 11.4108108,9.07266667 C11.3967568,9.06444444 11.3822703,9.05866667 11.3684324,9.04955556 L0.217297297,1.90311111 C0.197189189,2.024 0.184216216,2.14733333 0.184216216,2.27444444 L0.184216216,13.7431111 C0.184216216,14.9426667 1.13016216,15.9151111 2.29751351,15.9151111 L21.7020541,15.9151111 C22.8691892,15.9151111 23.8153514,14.9426667 23.8153514,13.7431111 L23.8153514,2.27444444 C23.8153514,2.14733333 23.8025946,2.024 23.7820541,1.90311111 L12.6315676,9.04955556 L12.6315676,9.04955556 Z" id="Shape"></path>
                        </g>
                    </g>
                </g>
            </g>
        </g>
    </g>
</svg>