<?xml version="1.0" encoding="UTF-8" standalone="no"?>
<svg width="20px" height="20px" viewBox="0 0 20 20" version="1.1" xmlns="http://www.w3.org/2000/svg" xmlns:xlink="http://www.w3.org/1999/xlink">
    <!-- Generator: sketchtool 39.1 (31720) - http://www.bohemiancoding.com/sketch -->
    <title>4B6703D2-98F1-4DF7-95CB-EAE659CE7E17</title>
    <desc>Created with sketchtool.</desc>
    <defs></defs>
    <g id="Page-1" stroke="none" stroke-width="1" fill="none" fill-rule="evenodd">
        <g id="Desktop-HD" transform="translate(-288.000000, -6216.000000)" fill="#FFFFFF">
            <g id="CONTACT" transform="translate(-5.000000, 5659.000000)">
                <g id="phone" transform="translate(165.000000, 547.000000)">
                    <g id="1472350475_Call01" transform="translate(128.000000, 10.000000)">
                        <g id="Phone">
                            <path d="M9.59944954,12.2847706 C7.8959633,10.8840367 6.75853211,9.15559633 6.16055046,8.17211009 L5.71449541,7.33119266 C5.87045872,7.16385321 7.05981651,5.89027523 7.57522936,5.19926606 C8.22293578,4.33155963 7.28385321,3.54788991 7.28385321,3.54788991 C7.28385321,3.54788991 4.64146789,0.905137615 4.03926606,0.380917431 C3.43706422,-0.144036697 2.74385321,0.147522936 2.74385321,0.147522936 C1.47816514,0.965321101 0.166055046,1.67633028 0.0873394495,5.09577982 C0.0844036697,8.29724771 2.5146789,11.5992661 5.14275229,14.1555963 C7.77504587,17.0425688 11.3891743,19.9361468 14.8833028,19.932844 C18.3023853,19.8548624 19.013211,18.5429358 19.8310092,17.2772477 C19.8310092,17.2772477 20.1227523,16.5845872 19.5983486,15.9818349 C19.073578,15.3792661 16.4304587,12.7363303 16.4304587,12.7363303 C16.4304587,12.7363303 15.6473394,11.7970642 14.7794495,12.4453211 C14.1326606,12.9288073 12.9711927,14.0042202 12.6913761,14.2649541 C12.6919266,14.2658716 10.7489908,13.2300917 9.59944954,12.2847706 L9.59944954,12.2847706 Z" id="Shape"></path>
                        </g>
                    </g>
                </g>
            </g>
        </g>
    </g>
</svg>