<?xml version="1.0" encoding="UTF-8" standalone="no"?>
<svg width="103px" height="123px" viewBox="0 0 103 123" version="1.1" xmlns="http://www.w3.org/2000/svg" xmlns:xlink="http://www.w3.org/1999/xlink">
    <!-- Generator: sketchtool 39.1 (31720) - http://www.bohemiancoding.com/sketch -->
    <title>8C2CF9AF-3C6C-43D1-8353-FA4C6C87C8F5</title>
    <desc>Created with sketchtool.</desc>
    <defs></defs>
    <g id="Page-1" stroke="none" stroke-width="1" fill="none" fill-rule="evenodd">
        <g id="Desktop-HD" transform="translate(-668.000000, -1166.000000)" fill="#23334A">
            <g id="REASONS" transform="translate(-1.000000, 974.000000)">
                <g id="1.2" transform="translate(571.000000, 168.000000)">
                    <g id="1472241401_lock-24" transform="translate(98.000000, 24.000000)">
                        <g id="Layer_1">
                            <path d="M91.1099,120.345604 L11.9693,120.345604 C6.5045,120.345604 2.0792,115.914835 2.0792,110.450549 L2.0792,60.9703297 C2.0792,55.506044 6.50945,51.0703297 11.9693,51.0703297 L16.91435,51.0703297 L16.91435,36.2302198 C16.91435,17.1027473 32.41775,1.59505495 51.5396,1.59505495 C70.66145,1.59505495 86.16485,17.1027473 86.16485,36.2302198 L86.16485,51.0703297 L91.1099,51.0703297 C96.5747,51.0703297 101,55.5010989 101,60.9703297 L101,110.450549 C101,115.90989 96.56975,120.345604 91.1099,120.345604 L91.1099,120.345604 Z M71.32475,36.2302198 C71.32475,25.3016484 62.46425,16.4401099 51.5396,16.4401099 C40.61495,16.4401099 31.75445,25.3016484 31.75445,36.2302198 L31.75445,51.0703297 L71.32475,51.0703297 L71.32475,36.2302198 L71.32475,36.2302198 Z" id="Shape"></path>
                        </g>
                    </g>
                </g>
            </g>
        </g>
    </g>
</svg>