<?xml version="1.0" encoding="UTF-8" standalone="no"?>
<svg width="107px" height="120px" viewBox="0 0 107 120" version="1.1" xmlns="http://www.w3.org/2000/svg" xmlns:xlink="http://www.w3.org/1999/xlink">
    <!-- Generator: sketchtool 39.1 (31720) - http://www.bohemiancoding.com/sketch -->
    <title>F23BBB23-B2E2-4050-A412-BC94D04332E5</title>
    <desc>Created with sketchtool.</desc>
    <defs></defs>
    <g id="Page-1" stroke="none" stroke-width="1" fill="none" fill-rule="evenodd">
        <g id="Desktop-HD" transform="translate(-295.000000, -1165.000000)">
            <g id="REASONS" transform="translate(-1.000000, 974.000000)">
                <g id="1.1" transform="translate(201.000000, 168.000000)">
                    <g id="1472241495_Arrow_Direction_Decrease_Down_Move_Lower" transform="translate(98.000000, 25.000000)" fill="#23334A">
                        <g id="Layer_1">
                            <path d="M76.8991304,113.739487 L77.0469565,113.590769 C84.733913,105.649231 91.8295652,97.1128205 98.2452174,88.0707692 L100.758261,84.5312821 C103.064348,81.705641 101.053913,77.4523077 97.4173913,77.4523077 L86.626087,77.4523077 C86.626087,77.3333333 86.5965217,77.214359 86.5965217,77.065641 C86.5669565,76.8276923 86.5669565,76.6194872 86.5078261,76.2625641 C86.4191304,75.6082051 86.3304348,74.8646154 86.2417391,74.0912821 C86.1530435,73.3179487 86.0347826,72.4553846 85.9165217,71.5928205 C85.7686957,70.76 85.6208696,69.8974359 85.4434783,68.9753846 C85.3547826,68.5292308 85.266087,68.0533333 85.1773913,67.5476923 C85.0886957,67.0717949 84.9704348,66.5661538 84.8521739,66.0605128 C84.6156522,65.0492308 84.3791304,64.0082051 84.1130435,62.9076923 C83.8173913,61.8369231 83.4921739,60.7066667 83.1373913,59.5466667 C82.7826087,58.3866667 82.3686957,57.1969231 81.9547826,55.9774359 C80.2104348,51.0994872 77.8452174,45.7753846 74.5930435,40.3917949 C71.3704348,35.0082051 67.2017391,29.5948718 62.2347826,24.5384615 C59.7217391,22.04 57.0313043,19.5712821 54.1043478,17.3405128 C52.6556522,16.1805128 51.1182609,15.1394872 49.5808696,14.0389744 C48.8121739,13.5035897 47.9843478,13.0276923 47.2156522,12.5220513 L46.0034783,11.7487179 L44.7617391,11.0348718 C38.1686957,7.19794872 30.866087,4.22358974 23.2086957,2.37948718 C19.3947826,1.42769231 15.4626087,0.832820513 11.5304348,0.446153846 C10.5252174,0.356923077 9.54956522,0.267692308 8.54434783,0.178461538 C8.21913043,0.148717949 7.92347826,0.118974359 7.59826087,0.118974359 C3.4,0.118974359 0,3.56923077 0,7.8225641 C0,11.3917949 2.39478261,14.3661538 5.67652174,15.2287179 L5.67652174,15.2287179 C5.73565217,15.2287179 5.82434783,15.2584615 5.91304348,15.2882051 C6.00173913,15.3179487 6.09043478,15.3179487 6.14956522,15.3476923 C7.06608696,15.585641 8.84,16.0317949 9.28347826,16.1210256 C12.3878261,16.8348718 15.4034783,17.6974359 18.3008696,18.8276923 C24.0956522,21.0584615 29.4173913,24.0625641 34.0295652,27.6317949 L34.8869565,28.2861538 L35.7147826,28.9702564 C36.2765217,29.4461538 36.8382609,29.8625641 37.3704348,30.3384615 C38.4052174,31.32 39.4695652,32.2420513 40.4156522,33.2533333 C42.3965217,35.1866667 44.1408696,37.2687179 45.7373913,39.3507692 C48.9008696,43.5446154 51.3843478,47.7979487 53.1582609,51.9323077 C54.9617391,56.0666667 56.1443478,59.9928205 56.8834783,63.5025641 C57.0608696,64.3948718 57.2382609,65.2276923 57.386087,66.0605128 C57.5043478,66.8933333 57.6226087,67.6964103 57.7408696,68.44 C57.8295652,69.2133333 57.8886957,69.9569231 57.9773913,70.6410256 C58.0069565,70.9979487 58.066087,71.3251282 58.066087,71.6820513 C58.0956522,72.0092308 58.0956522,72.3364103 58.1252174,72.6635897 C58.1547826,73.2882051 58.1843478,73.9128205 58.213913,74.4779487 L58.213913,75.905641 L58.213913,77.0953846 L58.213913,77.4225641 L47.3930435,77.4225641 C43.7565217,77.4225641 41.7756522,81.6758974 44.0521739,84.5015385 L46.4765217,87.9220513 C52.9513043,97.0533333 60.106087,105.678974 67.9113043,113.709744 C70.2469565,116.594872 74.5634783,116.594872 76.8991304,113.739487 L76.8991304,113.739487 Z" id="XMLID_374_"></path>
                        </g>
                    </g>
                    <rect id="Rectangle-5" x="0" y="0" width="300" height="250"></rect>
                </g>
            </g>
        </g>
    </g>
</svg>