<?xml version="1.0" encoding="UTF-8" standalone="no"?>
<svg width="83px" height="109px" viewBox="0 0 83 109" version="1.1" xmlns="http://www.w3.org/2000/svg" xmlns:xlink="http://www.w3.org/1999/xlink">
    <!-- Generator: sketchtool 39.1 (31720) - http://www.bohemiancoding.com/sketch -->
    <title>AA8D56C7-AA8C-4DEE-AF08-767D06D902F6</title>
    <desc>Created with sketchtool.</desc>
    <defs></defs>
    <g id="Page-1" stroke="none" stroke-width="1" fill="none" fill-rule="evenodd">
        <g id="Desktop-HD" transform="translate(-1045.000000, -1172.000000)">
            <g id="REASONS" transform="translate(-1.000000, 974.000000)">
                <g id="1.3" transform="translate(941.000000, 168.000000)">
                    <g id="Group" transform="translate(149.500000, 84.500000) scale(-1, 1) translate(-149.500000, -84.500000) translate(116.000000, 31.000000)" fill="#23334A">
                        <path d="M51.8922273,70.1517273 C47.5447273,65.6967879 44.5763182,57.5744848 43.7488636,53.9242424 C43.0744545,57.619 40.4508182,65.8662879 36.3034545,70.4890152 C31.1217727,76.2759848 25.2505455,79.7961061 21.5909091,79.6642727 C25.5145909,80.4912273 31.3286364,84.852 36.5254545,91.2399242 C41.47,97.2905606 44.4955909,102.880636 44.8117727,106.933227 C44.9765909,102.865227 47.7801818,97.1518788 52.4522727,90.8735303 C57.3530909,84.3109697 62.967,79.7002273 66.8486364,78.6917879 C63.1822727,78.8818333 57.232,75.6185303 51.8922273,70.1517273 L51.8922273,70.1517273 Z" id="Shape"></path>
                        <path d="M34.3282727,18.958197 C29.8512727,13.6540455 27.2125,4.36921212 26.5734091,0.234439394 C25.5374091,4.2870303 21.9669091,13.2362879 16.9567727,18.0285152 C10.8114091,23.9404697 4.07740909,27.3647121 0.00236363636,27.0205758 C4.28595455,28.2858333 10.3875909,33.6122424 15.6281364,41.1044848 C20.6298636,48.2662879 23.5629545,54.7346818 23.5696818,59.2786515 C24.0792727,54.7637879 27.6733182,48.6463788 33.3645909,42.0615606 C39.3804545,35.1548636 46.0152273,30.4859091 50.4064545,29.7120303 C46.3314091,29.7291515 39.8917273,25.5806818 34.3282727,18.958197 L34.3282727,18.958197 Z" id="Shape"></path>
                    </g>
                    <rect id="Rectangle-5" x="0" y="0" width="300" height="250"></rect>
                </g>
            </g>
        </g>
    </g>
</svg>