<?xml version="1.0" encoding="UTF-8" standalone="no"?>
<svg width="50px" height="50px" viewBox="0 0 50 50" version="1.1" xmlns="http://www.w3.org/2000/svg" xmlns:xlink="http://www.w3.org/1999/xlink">
    <!-- Generator: sketchtool 39.1 (31720) - http://www.bohemiancoding.com/sketch -->
    <title>BAEB043E-272C-43E2-A7DE-2DEF60BE671D</title>
    <desc>Created with sketchtool.</desc>
    <defs></defs>
    <g id="Page-1" stroke="none" stroke-width="1" fill="none" fill-rule="evenodd">
        <g id="Desktop-HD" transform="translate(-602.000000, -3568.000000)" fill="#23334A">
            <g id="PRICES" transform="translate(66.000000, 2732.000000)">
                <g id="ph" transform="translate(536.000000, 830.000000)">
                    <g id="CLOCK" transform="translate(0.000000, 6.000000)">
                        <path d="M40.1865248,24.8904255 C40.1865248,23.837234 39.343617,22.9840426 38.3046099,22.9840426 L26.7882979,22.9840426 L26.7882979,11.4847518 L26.7882979,11.4843972 C26.7882979,10.4276596 25.9308511,9.57056738 24.8748227,9.57056738 C23.8180851,9.57056738 22.9606383,10.4276596 22.9606383,11.4843972 L22.9606383,24.8829787 C22.9606383,25.9400709 23.8180851,26.7971631 24.8748227,26.7971631 L38.3056738,26.7971631 C39.343617,26.7971631 40.1865248,25.943617 40.1865248,24.8904255 M45.9336879,24.8783688 C45.9336879,36.5088652 36.5067376,45.937234 24.8787234,45.937234 C13.25,45.937234 3.82375887,36.5088652 3.82375887,24.8783688 C3.82375887,13.2478723 13.25,3.81950355 24.8787234,3.81950355 C36.5067376,3.81950355 45.9336879,13.2478723 45.9336879,24.8783688 M49.7567376,24.8783688 C49.7567376,11.1382979 38.6184397,0 24.8787234,0 C11.1382979,0 0,11.1382979 0,24.8783688 C0,38.6184397 11.1382979,49.7567376 24.8787234,49.7567376 C38.6184397,49.7567376 49.7567376,38.6184397 49.7567376,24.8783688" id="Shape"></path>
                    </g>
                </g>
            </g>
        </g>
    </g>
</svg>