<?xml version="1.0" encoding="UTF-8" standalone="no"?>
<svg width="30px" height="30px" viewBox="0 0 30 30" version="1.1" xmlns="http://www.w3.org/2000/svg" xmlns:xlink="http://www.w3.org/1999/xlink">
    <!-- Generator: sketchtool 39.1 (31720) - http://www.bohemiancoding.com/sketch -->
    <title>64B55437-E58F-4A72-8158-F62263954768</title>
    <desc>Created with sketchtool.</desc>
    <defs></defs>
    <g id="Page-1" stroke="none" stroke-width="1" fill="none" fill-rule="evenodd">
        <g id="Desktop-HD" transform="translate(-667.000000, -6348.000000)" fill="#FFFFFF">
            <g id="FOOTER" transform="translate(0.000000, 6340.000000)">
                <g id="fb" transform="translate(667.000000, 8.000000)">
                    <path d="M15,0.260263158 C6.87236842,0.260263158 0.260526316,6.87236842 0.260526316,14.9997368 C0.260526316,23.1273684 6.87236842,29.7397368 15,29.7397368 C23.1271053,29.7397368 29.7394737,23.1273684 29.7394737,14.9997368 C29.7394737,6.87236842 23.1271053,0.260263158 15,0.260263158 L15,0.260263158 Z M19.1657895,9.565 C19.1657895,9.71026316 19.0481579,9.82789474 18.9026316,9.82815789 L17.2271053,9.82921053 C16.1215789,9.82921053 15.9194737,10.2597368 15.9194737,11.1076316 L15.9194737,12.8665789 L18.7931579,12.8665789 C18.8686842,12.8665789 18.9407895,12.8992105 18.9905263,12.9560526 C19.0402632,13.0128947 19.0634211,13.0884211 19.0542105,13.1634211 L18.645,16.33 C18.6281579,16.4613158 18.5160526,16.5594737 18.3839474,16.5594737 L15.9194737,16.5594737 L15.9194737,24.4223684 C15.9194737,24.5678947 15.8018421,24.6855263 15.6563158,24.6855263 L12.3868421,24.6855263 C12.2413158,24.6855263 12.1236842,24.5678947 12.1236842,24.4223684 L12.1236842,16.5594737 L9.65131579,16.5594737 C9.50578947,16.5594737 9.38815789,16.4418421 9.38815789,16.2963158 L9.38815789,13.1297368 C9.38815789,12.9842105 9.50578947,12.8665789 9.65131579,12.8665789 L12.1236842,12.8665789 L12.1236842,10.7942105 C12.1236842,8.04947368 13.7847368,6.34473684 16.4592105,6.34473684 C17.6089474,6.34473684 18.625,6.43026316 18.9371053,6.47157895 C19.0681579,6.48894737 19.1657895,6.60052632 19.1657895,6.73236842 L19.1657895,9.565 L19.1657895,9.565 Z" id="Shape"></path>
                </g>
            </g>
        </g>
    </g>
</svg>