<?xml version="1.0" encoding="UTF-8" standalone="no"?>
<svg width="30px" height="30px" viewBox="0 0 30 30" version="1.1" xmlns="http://www.w3.org/2000/svg" xmlns:xlink="http://www.w3.org/1999/xlink">
    <!-- Generator: sketchtool 39.1 (31720) - http://www.bohemiancoding.com/sketch -->
    <title>9339E807-92D9-41D0-93BC-8FB93C70AF4F</title>
    <desc>Created with sketchtool.</desc>
    <defs></defs>
    <g id="Page-1" stroke="none" stroke-width="1" fill="none" fill-rule="evenodd">
        <g id="Desktop-HD" transform="translate(-743.000000, -6348.000000)" fill="#FFFFFF">
            <g id="FOOTER" transform="translate(0.000000, 6340.000000)">
                <g id="g+" transform="translate(743.000000, 8.000000)">
                    <path d="M12.7463158,8.37315789 C12.4613158,8.16815789 12.1342105,8.05921053 11.7542105,8.04578947 C11.2613158,8.05947368 10.8607895,8.25289474 10.5310526,8.63684211 C10.2439474,9.06157895 10.1107895,9.52263158 10.1244737,10.0457895 C10.1244737,10.7723684 10.34,11.5355263 10.7657895,12.3213158 C10.9639474,12.6734211 11.2242105,12.9781579 11.5378947,13.2234211 C11.8368421,13.4584211 12.1689474,13.5723684 12.5536842,13.5723684 C13.0281579,13.5544737 13.4210526,13.3889474 13.7439474,13.0665789 C13.895,12.8357895 13.9931579,12.5976316 14.0360526,12.3578947 C14.0634211,12.1034211 14.0784211,11.8723684 14.0784211,11.6889474 C14.0784211,10.8978947 13.8721053,10.0871053 13.4647368,9.27894737 C13.2813158,8.90605263 13.0397368,8.60210526 12.7463158,8.37315789 L12.7463158,8.37315789 Z" id="Shape"></path>
                    <path d="M10.2347368,17.9978947 C10.0692105,18.0736842 9.88736842,18.1905263 9.70078947,18.3426316 C9.53710526,18.4863158 9.39026316,18.6768421 9.27131579,18.9023684 C9.13526316,19.1376316 9.06894737,19.4205263 9.06894737,19.7523684 C9.06894737,20.4139474 9.36368421,20.9463158 9.97052632,21.38 C10.5689474,21.8297368 11.4031579,22.0626316 12.4544737,22.0763158 C13.3821053,22.0628947 14.0976316,21.86 14.5739474,21.4726316 C15.0265789,21.1018421 15.2468421,20.6368421 15.2468421,20.0523684 C15.2468421,19.5757895 15.0963158,19.1726316 14.7863158,18.8189474 C14.445,18.4718421 13.8910526,18.0260526 13.1478947,17.5039474 C13.04,17.4952632 12.9139474,17.4910526 12.7652632,17.4910526 C12.7544737,17.4910526 12.7436842,17.4902632 12.7328947,17.4889474 C12.7139474,17.4865789 12.6873684,17.4860526 12.6531579,17.4860526 C12.5160526,17.4860526 12.2826316,17.5010526 11.9589474,17.5310526 C11.5455263,17.59 11.1052632,17.6881579 10.6631579,17.8213158 C10.5757895,17.8552632 10.4265789,17.9165789 10.2347368,17.9978947 L10.2347368,17.9978947 Z" id="Shape"></path>
                    <path d="M15,0.260263158 C6.87236842,0.260263158 0.260263158,6.87236842 0.260263158,14.9997368 C0.260263158,23.1273684 6.87236842,29.7397368 15,29.7397368 C23.1273684,29.7397368 29.7394737,23.1273684 29.7394737,14.9997368 C29.7394737,6.87236842 23.1273684,0.260263158 15,0.260263158 L15,0.260263158 Z M7.13289474,18.7723684 C7.38552632,18.2492105 7.84657895,17.7844737 8.50078947,17.3947368 C9.21657895,16.9863158 9.97315789,16.7118421 10.7539474,16.5768421 C11.3047368,16.4960526 11.7760526,16.4415789 12.1834211,16.4118421 C12.1265789,16.3189474 12.0728947,16.2242105 12.0223684,16.1276316 C11.8673684,15.8831579 11.7834211,15.5668421 11.7834211,15.2052632 C11.7834211,14.9986842 11.8121053,14.8184211 11.8692105,14.6694737 C11.7678947,14.675 11.6694737,14.6773684 11.5742105,14.6773684 C10.3686842,14.6623684 9.43368421,14.2728947 8.79236842,13.5194737 C8.13684211,12.8339474 7.79947368,12.0105263 7.79947368,11.0834211 C7.79947368,9.97263158 8.26947368,8.95526316 9.19684211,8.05947368 C9.84342105,7.52684211 10.5115789,7.18184211 11.1986842,7.02026316 C11.8626316,6.88473684 12.4889474,6.81710526 13.0676316,6.81710526 L17.3084211,6.81710526 C17.4273684,6.81710526 17.5315789,6.89684211 17.5623684,7.01131579 C17.5934211,7.12631579 17.5439474,7.24736842 17.4410526,7.30736842 L16.1313158,8.07210526 C16.0913158,8.09552632 16.0452632,8.10789474 15.9986842,8.10789474 L15.4076316,8.10789474 C15.5547368,8.27263158 15.6955263,8.46157895 15.8315789,8.67605263 C15.9868421,8.91684211 16.1271053,9.20605263 16.2471053,9.53342105 C16.3518421,9.88 16.4026316,10.2713158 16.4026316,10.7105263 C16.39,11.5226316 16.2047368,12.185 15.8518421,12.6834211 C15.6876316,12.9131579 15.5107895,13.1278947 15.3257895,13.3226316 C15.1171053,13.5205263 14.9065789,13.7128947 14.6834211,13.9084211 C14.5857895,14.0107895 14.4786842,14.1465789 14.3807895,14.2981579 C14.2784211,14.4381579 14.2331579,14.5834211 14.2331579,14.7547368 C14.2331579,14.91 14.2747368,15.0321053 14.3602632,15.1273684 C14.4713158,15.2665789 14.5723684,15.3810526 14.6710526,15.4794737 L15.3718421,16.0515789 C15.8365789,16.4328947 16.2463158,16.855 16.59,17.3057895 C16.9421053,17.8034211 17.1252632,18.4439474 17.1405263,19.2184211 C17.1405263,20.3247368 16.6523684,21.3105263 15.6886842,22.1534211 C14.7060526,23.0121053 13.2789474,23.4618421 11.4465789,23.4907895 L11.4423684,23.4907895 L11.44,23.4907895 C9.89947368,23.4765789 8.72394737,23.1363158 7.94578947,22.4797368 C7.15052632,21.8565789 6.74368421,21.0884211 6.74368421,20.2026316 C6.74368421,19.7681579 6.87473684,19.2873684 7.13289474,18.7723684 L7.13289474,18.7723684 Z M23.3168421,10.4742105 C23.3168421,10.6197368 23.1992105,10.7373684 23.0536842,10.7373684 L21.0918421,10.7373684 L21.0918421,12.6989474 C21.0918421,12.8444737 20.9742105,12.9621053 20.8286842,12.9621053 L19.7502632,12.9621053 C19.6047368,12.9621053 19.4871053,12.8444737 19.4871053,12.6989474 L19.4871053,10.7373684 L17.5255263,10.7373684 C17.38,10.7373684 17.2623684,10.6197368 17.2623684,10.4742105 L17.2623684,9.39605263 C17.2623684,9.25078947 17.38,9.13289474 17.5255263,9.13289474 L19.4871053,9.13289474 L19.4871053,7.17026316 C19.4871053,7.025 19.6047368,6.90710526 19.7502632,6.90710526 L20.8286842,6.90710526 C20.9742105,6.90710526 21.0918421,7.025 21.0918421,7.17026316 L21.0918421,9.13289474 L23.0536842,9.13289474 C23.1992105,9.13289474 23.3168421,9.25078947 23.3168421,9.39605263 L23.3168421,10.4742105 L23.3168421,10.4742105 Z" id="Shape"></path>
                </g>
            </g>
        </g>
    </g>
</svg>