<?xml version="1.0" encoding="UTF-8" standalone="no"?>
<svg width="30px" height="30px" viewBox="0 0 30 30" version="1.1" xmlns="http://www.w3.org/2000/svg" xmlns:xlink="http://www.w3.org/1999/xlink">
    <!-- Generator: sketchtool 39.1 (31720) - http://www.bohemiancoding.com/sketch -->
    <title>158CBB67-BF77-4F5A-AEB8-B8B845200CAA</title>
    <desc>Created with sketchtool.</desc>
    <defs></defs>
    <g id="Page-1" stroke="none" stroke-width="1" fill="none" fill-rule="evenodd">
        <g id="Desktop-HD" transform="translate(-705.000000, -6348.000000)" fill="#FFFFFF">
            <g id="FOOTER" transform="translate(0.000000, 6340.000000)">
                <g id="instagram" transform="translate(705.000000, 8.000000)">
                    <path d="M15.0139474,17.9792105 C16.6423684,17.9792105 17.9631579,16.7 17.9631579,15.1226316 C17.9631579,13.5436842 16.6421053,12.2655263 15.0139474,12.2655263 C13.3860526,12.2655263 12.0657895,13.5436842 12.0657895,15.1226316 C12.0657895,16.6997368 13.3860526,17.9792105 15.0139474,17.9792105 L15.0139474,17.9792105 Z" id="Shape"></path>
                    <path d="M18.3547368,12.3484211 L20.0139474,12.3484211 C20.3773684,12.3484211 20.675,12.0507895 20.675,11.6868421 L20.675,10.1055263 C20.675,9.74157895 20.3773684,9.44342105 20.0139474,9.44342105 L18.3547368,9.44342105 C17.9902632,9.44342105 17.6936842,9.74157895 17.6936842,10.1055263 L17.6936842,11.6868421 C17.6936842,12.0507895 17.9902632,12.3484211 18.3547368,12.3484211 L18.3547368,12.3484211 Z" id="Shape"></path>
                    <path d="M19.5784211,15.2821053 C19.5784211,17.7231579 17.5342105,19.7036842 15.0136842,19.7036842 C12.4936842,19.7036842 10.45,17.7234211 10.45,15.2821053 C10.45,14.8434211 10.5168421,14.4213158 10.6392105,14.0215789 L9.29105263,14.0215789 L9.29105263,20.2236842 C9.29105263,20.545 9.55315789,20.8060526 9.87447368,20.8060526 L20.0976316,20.8060526 C20.4194737,20.8060526 20.6815789,20.545 20.6815789,20.2236842 L20.6815789,14.0215789 L19.3894737,14.0215789 C19.5121053,14.4213158 19.5784211,14.8434211 19.5784211,15.2821053 L19.5784211,15.2821053 Z" id="Shape"></path>
                    <path d="M14.9994737,0.260263158 C6.87236842,0.260263158 0.260526316,6.87236842 0.260526316,14.9997368 C0.260526316,23.1273684 6.87236842,29.7397368 14.9994737,29.7397368 C23.1271053,29.7397368 29.7394737,23.1273684 29.7394737,14.9997368 C29.7394737,6.87236842 23.1271053,0.260263158 14.9994737,0.260263158 L14.9994737,0.260263158 Z M22.3410526,20.6102632 C22.3410526,21.6465789 21.4928947,22.4939474 20.4568421,22.4939474 L9.54421053,22.4939474 C8.50789474,22.4939474 7.65947368,21.6465789 7.65947368,20.6102632 L7.65947368,9.69789474 C7.65947368,8.66105263 8.50815789,7.81315789 9.54421053,7.81315789 L20.4571053,7.81315789 C21.4934211,7.81315789 22.3413158,8.66105263 22.3413158,9.69789474 L22.3413158,20.6102632 L22.3410526,20.6102632 Z" id="Shape"></path>
                </g>
            </g>
        </g>
    </g>
</svg>