<?xml version="1.0" encoding="UTF-8" standalone="no"?>
<svg width="163px" height="132px" viewBox="0 0 163 132" version="1.1" xmlns="http://www.w3.org/2000/svg" xmlns:xlink="http://www.w3.org/1999/xlink">
    <!-- Generator: sketchtool 39.1 (31720) - http://www.bohemiancoding.com/sketch -->
    <title>4481C889-81BE-4E1F-A561-D44B964C72D4</title>
    <desc>Created with sketchtool.</desc>
    <defs></defs>
    <g id="Page-1" stroke="none" stroke-width="1" fill="none" fill-rule="evenodd">
        <g id="Desktop-HD" transform="translate(-493.000000, -3005.000000)">
            <g id="PRICES" transform="translate(66.000000, 2732.000000)">
                <g id="BASIS-PLUS" transform="translate(356.000000, 183.000000)">
                    <g id="1472266935_lifebuoy" transform="translate(71.000000, 90.000000)">
                        <g id="Layer_1" fill="#FFFFFF">
                            <path d="M65.9992787,0.0908852459 C29.6563607,0.0908852459 0.0908852459,29.6572623 0.0908852459,66 C0.0908852459,102.342738 29.6563607,131.908934 65.9992787,131.908934 C102.341836,131.908934 131.908934,102.342738 131.908934,66 C131.908934,29.6572623 102.341836,0.0908852459 65.9992787,0.0908852459 L65.9992787,0.0908852459 Z M99.0811475,60.785459 L125.902213,60.785459 C126.051885,62.5050656 126.143492,64.241623 126.143492,66 C126.143492,67.7572951 126.051885,69.4931311 125.902213,71.2127377 L99.0811475,71.2127377 C99.3500164,69.5091803 99.5283607,67.7765902 99.5283607,66 C99.528541,64.2216066 99.3483934,62.4890164 99.0811475,60.785459 L99.0811475,60.785459 Z M125.120311,55.0200164 L98.0949344,55.0200164 C97.9472459,55.0200164 97.8040656,55.0425574 97.6608852,55.0634754 C94.2907377,45.3391148 86.5819016,37.6483115 76.8432951,34.3053934 C76.9255246,34.0399508 76.9817869,33.7640492 76.9817869,33.4720984 L76.9817869,6.87932787 C101.352557,11.396541 120.603639,30.6474426 125.120311,55.0200164 L125.120311,55.0200164 Z M65.9992787,93.762918 C50.6910656,93.762918 38.235459,81.3087541 38.235459,66 C38.235459,50.6910656 50.6912459,38.2369016 65.9992787,38.2369016 C81.3085738,38.2369016 93.7632787,50.6910656 93.7632787,66 C93.7632787,81.3087541 81.3087541,93.762918 65.9992787,93.762918 L65.9992787,93.762918 Z M71.2159836,6.09688525 L71.2159836,32.9195738 C69.5111639,32.6517869 67.7782131,32.4716393 65.9992787,32.4716393 C64.2232295,32.4716393 62.490459,32.6510656 60.7887049,32.9186721 L60.7887049,6.09616393 C62.5066885,5.94811475 64.2425246,5.85632787 65.9992787,5.85632787 C67.7572951,5.85632787 69.4949344,5.94793443 71.2159836,6.09688525 L71.2159836,6.09688525 Z M55.0232623,6.87788525 L55.0232623,33.4722787 C55.0232623,33.7633279 55.0795246,34.0394098 55.1599508,34.3039508 C45.419541,37.6450656 37.7092623,45.3385738 34.3376721,55.0636557 C34.1961148,55.0427377 34.0529344,55.0201967 33.9032623,55.0201967 L6.87788525,55.0201967 C11.394918,30.6456393 30.6488852,11.3941967 55.0232623,6.87788525 L55.0232623,6.87788525 Z M5.85632787,66 C5.85632787,64.241623 5.94811475,62.5050656 6.09616393,60.785459 L32.9172295,60.785459 C32.6501639,62.4890164 32.4701967,64.2214262 32.4701967,66 C32.4701967,67.7767705 32.6503443,69.5091803 32.9172295,71.2127377 L6.09616393,71.2127377 C5.94811475,69.4931311 5.85632787,67.7572951 5.85632787,66 L5.85632787,66 Z M6.87788525,76.9783607 L33.9034426,76.9783607 C34.0531148,76.9783607 34.1944918,76.9558197 34.3378525,76.9349016 C37.6919508,86.6158033 45.3490328,94.2802787 55.0250656,97.646459 C55.0250656,97.6525902 55.0234426,97.6572787 55.0234426,97.6639508 L55.0234426,125.122115 C30.6474426,120.605623 11.394918,101.352557 6.87788525,76.9783607 L6.87788525,76.9783607 Z M60.7887049,125.904016 L60.7887049,99.0811475 C62.4906393,99.3491148 64.2232295,99.5283607 65.9992787,99.5283607 C67.7780328,99.5283607 69.5111639,99.3482131 71.2159836,99.0804262 L71.2159836,125.903115 C69.4949344,126.051885 67.7572951,126.143492 65.9992787,126.143492 C64.2425246,126.143492 62.5066885,126.052066 60.7887049,125.904016 L60.7887049,125.904016 Z M76.9816066,125.120311 L76.9816066,97.6639508 C76.9816066,97.6572787 76.9781803,97.6513279 76.9781803,97.6448361 C86.6522295,94.2777541 94.3080492,86.6141803 97.6607049,76.9349016 C97.8038852,76.9558197 97.9470656,76.9783607 98.0947541,76.9783607 L125.119951,76.9783607 C120.605262,101.351295 101.354361,120.603639 76.9816066,125.120311 L76.9816066,125.120311 Z" id="Shape"></path>
                        </g>
                        <rect id="Rectangle-10" fill="#7ED321" x="139" y="3" width="8" height="40" rx="2"></rect>
                        <rect id="Rectangle-10" fill="#7ED321" transform="translate(143.000000, 23.000000) rotate(90.000000) translate(-143.000000, -23.000000) " x="139" y="3" width="8" height="40" rx="2"></rect>
                    </g>
                </g>
            </g>
        </g>
    </g>
</svg>