<?xml version="1.0" encoding="UTF-8" standalone="no"?>
<svg width="163px" height="56px" viewBox="0 0 163 56" version="1.1" xmlns="http://www.w3.org/2000/svg" xmlns:xlink="http://www.w3.org/1999/xlink">
    <!-- Generator: sketchtool 39.1 (31720) - http://www.bohemiancoding.com/sketch -->
    <title>6EDFB4E0-E85C-4C21-BD53-333A788D9F3E</title>
    <desc>Created with sketchtool.</desc>
    <defs></defs>
    <g id="Page-1" stroke="none" stroke-width="1" fill="none" fill-rule="evenodd">
        <g id="Desktop-HD" transform="translate(-50.000000, -24.000000)" fill="#FFFFFF">
            <g id="LOGO-HEADER" transform="translate(50.000000, 24.000000)">
                <path d="M51.6956314,35.9916023 C50.4774904,39.1778324 48.9326197,41.4807918 47.3421458,41.4807918 C45.0021458,41.4807918 42.3021458,38.1207918 42.7221458,31.7007918 C43.0821458,26.1807918 44.5821458,23.0607918 43.0821458,23.0607918 C41.4021458,23.0607918 38.4621458,29.6007918 37.0221458,39.0207918 C36.9021458,40.7007918 36.0621458,41.1807918 35.5221458,41.1807918 C34.6821458,41.1807918 32.7021458,41.1807918 32.7021458,39.5007918 C32.7021458,28.5807918 34.0221458,6.14079184 34.7421458,3.38079184 C35.1621458,1.82079184 40.3821458,1.70079184 40.3221458,2.12079184 C39.3021458,6.26079184 37.9821458,19.7007918 37.3821458,30.8607918 C39.1821458,24.9807918 41.9421458,20.5407918 44.7621458,20.5407918 C47.9421458,20.5407918 49.0821458,24.0207918 48.3021458,30.1407918 C47.5221458,36.0807918 46.9221458,39.5007918 47.8821458,39.5007918 C48.7884974,39.5007918 50.0713575,37.0363722 51.1361255,33.3742911 C50.7494873,30.8017869 50.728317,27.7417892 51.3021458,24.3807918 C51.5421458,22.8207918 57.5421458,22.7007918 57.4221458,23.1207918 C55.4421458,33.6207918 54.7221458,39.5007918 56.4621458,39.5007918 C57.6621458,39.5007918 59.2821458,35.1807918 60.4221458,29.4807918 C60.6021458,28.7007918 62.1621458,27.8607918 61.8621458,29.3607918 C60.7821458,35.4207918 58.2021458,41.4807918 55.8021458,41.4807918 C54.3295774,41.4807918 52.6691306,39.4141299 51.6956314,35.9916023 Z M29.8821458,32.6007918 C30.2421458,26.3607918 24.3021458,21.6807918 19.4421458,18.6807918 C14.4021458,15.6207918 10.5621458,14.0007918 11.3421458,8.06079184 C11.9421458,3.44079184 15.5421458,1.46079184 19.6221458,1.64079184 C28.8621458,2.06079184 25.5021458,12.3807918 21.0021458,16.1607918 C20.0421458,16.9407918 20.1621458,17.3607918 21.0021458,17.2407918 C26.9421458,16.4007918 30.0621458,12.9207918 29.9421458,7.46079184 C29.8221458,3.14079184 26.5821458,0.320791844 19.9821458,0.0207918436 C13.2021458,-0.279208156 6.0621458,2.66079184 5.5221458,9.26079184 C4.9821458,14.9007918 11.6421458,19.2807918 16.8021458,22.7007918 C21.5421458,25.8807918 24.7821458,28.1607918 24.0621458,33.9807918 C23.4621458,38.9007918 19.8021458,41.9607918 13.6221458,41.4807918 C8.1021458,41.0607918 4.5021458,37.1607918 4.8021458,32.8407918 C5.0421458,29.6607918 6.6621458,27.4407918 9.3621458,24.8007918 C10.2021458,23.9007918 10.3821458,23.7207918 9.5421458,23.6007918 C8.4621458,23.4807918 5.5821458,23.9607918 3.6021458,25.2207918 C1.4421458,26.6007918 0.0621458019,29.4807918 0.00214580193,32.0607918 C-0.117854198,37.2807918 4.8021458,42.8007918 13.0221458,43.2807918 C21.3021458,43.8207918 29.4021458,40.5207918 29.8821458,32.6007918 Z M80.4374175,37.1107512 C79.2918204,39.7031949 77.9269831,41.4807918 76.5621458,41.4807918 C73.9821458,41.4807918 71.5821458,38.1207918 71.9421458,31.7007918 C72.2421458,26.0007918 74.4021458,23.0607918 72.9021458,23.0607918 C71.2221458,23.0607918 68.8821458,29.4207918 66.3021458,38.6007918 C66.1221458,40.5807918 63.5421458,41.1807918 62.9421458,41.1807918 C62.1021458,41.1807918 61.9221458,41.1807918 61.9221458,39.5007918 L61.9221458,22.2807918 C61.9221458,20.6607918 67.6821458,20.5407918 67.6221458,21.0207918 C67.4421458,22.4007918 66.8421458,25.6407918 66.4821458,32.5407918 C68.6421458,25.8207918 71.4621458,20.5407918 74.5821458,20.5407918 C76.9821458,20.5407918 78.0021458,23.9607918 77.5221458,30.1407918 C76.9821458,36.8007918 76.1421458,39.5007918 77.1021458,39.5007918 C77.830547,39.5007918 78.8021253,37.909087 79.7082443,35.3832072 C79.3783595,34.310643 79.2129032,33.102653 79.2621458,31.7607918 C79.6221458,24.5607918 84.1821458,21.1407918 88.0221458,21.1407918 C91.8021458,21.1407918 94.5021458,23.9607918 94.0821458,26.8407918 C93.5421458,30.6207918 89.1621458,32.9607918 84.8421458,33.5007918 C85.2021458,37.2807918 86.7021458,39.5007918 88.9221458,39.5007918 C92.0421458,39.5007918 95.8221458,35.1807918 96.9621458,29.4807918 C97.1421458,28.7007918 98.7021458,27.8607918 98.4021458,29.3607918 C97.3221458,35.4207918 92.7621458,41.6607918 88.0221458,41.6607918 C85.2237139,41.6607918 82.0963082,40.1255808 80.4374175,37.1107512 Z M59.3421458,14.0007918 C59.3421458,12.0207918 57.6621458,10.3407918 55.6221458,10.3407918 C53.5821458,10.3407918 51.9021458,12.0207918 51.9021458,14.0007918 C51.9021458,16.0407918 53.5821458,17.7207918 55.6221458,17.7207918 C57.6621458,17.7207918 59.3421458,16.0407918 59.3421458,14.0007918 Z M84.7821458,30.9807918 C85.0221458,25.5207918 85.9821458,22.1607918 87.4821458,22.1607918 C88.7421458,22.1607918 89.3421458,24.0807918 88.6221458,27.3207918 C88.1421458,29.7807918 86.7021458,31.5807918 84.7821458,32.2407918 L84.7821458,30.9807918 Z M146.247144,38.0187501 C144.825258,40.4274493 143.136465,42.0807918 141.522146,42.0807918 C137.802146,42.0807918 134.142146,36.3207918 134.922146,24.8007918 L135.102146,22.3407918 C131.502146,36.2607918 126.642146,42.5607918 122.142146,42.3207918 C117.822146,42.0807918 117.642146,31.9407918 117.882146,24.3207918 C118.362146,10.5807918 118.842146,3.26079184 114.342146,3.26079184 C110.502146,3.26079184 106.722146,11.5407918 105.522146,17.5407918 C105.342146,18.3207918 103.782146,19.1607918 104.082146,17.6607918 C105.222146,11.3007918 109.422146,1.04079184 115.602146,1.28079184 C120.762146,1.46079184 123.882146,5.36079184 123.462146,18.4407918 C123.102146,29.7807918 121.482146,38.4807918 124.362146,38.7207918 C127.542146,39.0207918 133.302146,27.5607918 136.362146,7.16079184 C136.602146,4.52079184 136.842146,2.72079184 137.022146,2.06079184 C137.442146,0.620791844 142.722146,0.620791844 142.602146,1.04079184 C142.122146,4.04079184 141.282146,14.4807918 140.562146,24.5007918 C139.782146,34.9407918 139.362146,40.1007918 142.182146,40.1007918 C143.533658,40.1007918 145.122184,37.9413334 146.371973,34.8262597 C146.509469,31.0096897 146.609537,27.140488 146.682146,23.6007918 C146.742146,21.5007918 149.502146,20.9007918 150.162146,20.9007918 C150.942146,20.9007918 151.062146,20.9607918 151.062146,22.6407918 L151.062146,29.2407918 C152.382146,24.0207918 154.362146,20.5407918 157.122146,20.5407918 C159.522146,20.5407918 162.762146,23.2407918 162.462146,30.2607918 C162.102146,37.5807918 157.362146,41.4207918 152.682146,41.1807918 C152.022146,41.1807918 151.422146,41.0007918 150.942146,40.8207918 C150.822146,47.3607918 150.582146,53.0007918 150.222146,54.4407918 C149.802146,56.0007918 144.582146,56.1207918 144.702146,55.7007918 C145.437211,52.5767655 145.924629,45.6254682 146.247144,38.0187501 Z M109.462146,29.7807918 C107.182146,29.7807918 104.002146,29.1207918 102.382146,28.9407918 C101.902146,28.8807918 102.022146,33.0807918 103.642146,33.1407918 C105.682146,33.2007918 111.922146,31.5807918 111.922146,29.9007918 C111.922146,29.4807918 111.802146,29.7807918 109.462146,29.7807918 Z M151.002146,37.5207918 C152.442146,27.9807918 154.362146,22.7607918 156.042146,22.7607918 C157.542146,22.7607918 157.482146,27.0207918 156.822146,31.3407918 C155.922146,36.8007918 154.602146,39.8607918 152.622146,39.8607918 C151.962146,39.8607918 151.422146,39.8007918 150.942146,39.6207918 L150.942146,37.7607918 C151.002146,37.7007918 151.002146,37.5807918 151.002146,37.5207918 L151.002146,37.5207918 Z" id="Shine--Up"></path>
            </g>
        </g>
    </g>
</svg>