<?xml version="1.0" encoding="UTF-8" standalone="no"?>
<svg width="14px" height="21px" viewBox="0 0 14 21" version="1.1" xmlns="http://www.w3.org/2000/svg" xmlns:xlink="http://www.w3.org/1999/xlink">
    <!-- Generator: sketchtool 39.1 (31720) - http://www.bohemiancoding.com/sketch -->
    <title>9D580659-CC9B-468D-8A3C-D6509C77F4EF</title>
    <desc>Created with sketchtool.</desc>
    <defs></defs>
    <g id="Page-1" stroke="none" stroke-width="1" fill="none" fill-rule="evenodd">
        <g id="Desktop-HD" transform="translate(-714.000000, -6216.000000)" fill="#FFFFFF">
            <g id="CONTACT" transform="translate(-5.000000, 5659.000000)">
                <g id="location" transform="translate(585.000000, 547.000000)">
                    <g id="1472350435_map-location-pin-map-marker-glyph" transform="translate(134.000000, 10.000000)">
                        <g id="Group">
                            <g id="miu">
                                <g id="Artboard-1">
                                    <path d="M7,21 C7,21 14,11.5764581 14,7.45768991 C14,3.33892173 11.6842124,-9.54545452e-07 7,0 C2.3157876,9.54545452e-07 0,3.33892173 0,7.45768991 C0,11.5764581 7,21 7,21 L7,21 L7,21 Z M7,10.0227273 C9.06186307,10.0227273 10.7333333,8.31326905 10.7333333,6.20454545 C10.7333333,4.09582186 9.06186307,2.38636364 7,2.38636364 C4.93813693,2.38636364 3.26666667,4.09582186 3.26666667,6.20454545 C3.26666667,8.31326905 4.93813693,10.0227273 7,10.0227273 L7,10.0227273 L7,10.0227273 Z" id="map-location-pin-map-marker-glyph"></path>
                                </g>
                            </g>
                        </g>
                    </g>
                </g>
            </g>
        </g>
    </g>
</svg>